<?xml version="1.0" encoding="utf-8"?>
<!-- Generator: Adobe Illustrator 22.0.1, SVG Export Plug-In . SVG Version: 6.00 Build 0)  -->
<svg version="1.1" id="Calque_1" xmlns="http://www.w3.org/2000/svg" xmlns:xlink="http://www.w3.org/1999/xlink" x="0px" y="0px"
	 viewBox="0 0 848 512" style="enable-background:new 0 0 848 512;" xml:space="preserve">
<style type="text/css">
	.st0{fill:#FFFFFF;}
</style>
<path class="st0" d="M311,131.5l-7.1,7.1c-4.7,4.7-4.7,12.3,0,17l83.9,83.4H12c-6.6,0-12,5.4-12,12v10c0,6.6,5.4,12,12,12h375.9
	L304,356.4c-4.7,4.7-4.7,12.3,0,17l7.1,7.1c4.7,4.7,12.3,4.7,17,0l116.5-116c4.7-4.7,4.7-12.3,0-17L328,131.5
	C323.3,126.8,315.7,126.8,311,131.5z"/>
</svg>
