<?xml version="1.0" encoding="utf-8"?>
<!-- Generator: Adobe Illustrator 22.0.1, SVG Export Plug-In . SVG Version: 6.00 Build 0)  -->
<svg version="1.1" id="Calque_1" xmlns="http://www.w3.org/2000/svg" xmlns:xlink="http://www.w3.org/1999/xlink" x="0px" y="0px"
	 viewBox="0 0 256 512" style="enable-background:new 0 0 256 512;" xml:space="preserve">
<style type="text/css">
	.st0{fill:#FFFFFF;}
</style>
<path class="st0" d="M3.5,169l7.1,7.1c4.7,4.7,12.3,4.7,17,0L111,92.1V468c0,6.6,5.4,12,12,12h10c6.6,0,12-5.4,12-12V92.1l83.4,83.9
	c4.7,4.7,12.3,4.7,17,0l7.1-7.1c4.7-4.7,4.7-12.3,0-17l-116-116.5c-4.7-4.7-12.3-4.7-17,0L3.5,152C-1.2,156.7-1.2,164.3,3.5,169z"/>
</svg>
