<?xml version="1.0" encoding="utf-8"?>
<!-- Generator: Adobe Illustrator 22.0.1, SVG Export Plug-In . SVG Version: 6.00 Build 0)  -->
<svg version="1.1" id="Calque_1" xmlns="http://www.w3.org/2000/svg" xmlns:xlink="http://www.w3.org/1999/xlink" x="0px" y="0px"
	 viewBox="0 0 256 512" style="enable-background:new 0 0 256 512;" xml:space="preserve">
<style type="text/css">
	.st0{fill:#FFFFFF;}
</style>
<path class="st0" d="M252.5,343l-7.1-7.1c-4.7-4.7-12.3-4.7-17,0L145,419.9V44c0-6.6-5.4-12-12-12h-10c-6.6,0-12,5.4-12,12v375.9
	L27.6,336c-4.7-4.7-12.3-4.7-17,0L3.5,343c-4.7,4.7-4.7,12.3,0,17l116,116.5c4.7,4.7,12.3,4.7,17,0l116-116.5
	C257.2,355.3,257.2,347.7,252.5,343L252.5,343z"/>
</svg>
